<?xml version="1.0" encoding="UTF-8"?>
<svg xmlns="http://www.w3.org/2000/svg" width="190" height="182" viewBox="0 0 190 182">
<path d="M90,5h15v1h-15zM83,6h30v1h-30zM78,7h39v1h-39zM74,8h47v1h-47zM71,9h53v1h-53zM68,10h59v1h-59zM66,11h64v1h-64zM63,12h69v1h-69zM61,13h73v1h-73zM59,14h77v1h-77zM57,15h81v1h-81zM55,16h85v1h-85zM54,17h87v1h-87zM52,18h91v1h-91zM51,19h35v1h-35zM108,19h37v1h-37zM49,20h31v1h-31zM113,20h33v1h-33zM48,21h28v1h-28zM117,21h30v1h-30zM47,22h26v1h-26zM120,22h29v1h-29zM45,23h26v1h-26zM123,23h27v1h-27zM44,24h24v1h-24zM125,24h26v1h-26zM43,25h23v1h-23zM127,25h25v1h-25zM42,26h22v1h-22zM129,26h24v1h-24zM41,27h21v1h-21zM132,27h23v1h-23zM40,28h21v1h-21zM133,28h23v1h-23zM39,29h20v1h-20zM135,29h22v1h-22zM38,30h19v1h-19zM136,30h22v1h-22zM37,31h19v1h-19zM138,31h21v1h-21zM36,32h19v1h-19zM139,32h20v1h-20zM35,33h18v1h-18zM141,33h19v1h-19zM34,34h18v1h-18zM142,34h19v1h-19zM33,35h18v1h-18zM143,35h19v1h-19zM32,36h18v1h-18zM144,36h19v1h-19zM31,37h18v1h-18zM145,37h19v1h-19zM31,38h17v1h-17zM147,38h18v1h-18zM30,39h17v1h-17zM148,39h17v1h-17zM29,40h17v1h-17zM149,40h17v1h-17zM29,41h16v1h-16zM149,41h18v1h-18zM28,42h16v1h-16zM150,42h17v1h-17zM27,43h17v1h-17zM151,43h17v1h-17zM27,44h16v1h-16zM152,44h17v1h-17zM26,45h16v1h-16zM153,45h16v1h-16zM25,46h16v1h-16zM154,46h16v1h-16zM25,47h15v1h-15zM154,47h16v1h-16zM24,48h16v1h-16zM155,48h16v1h-16zM24,49h15v1h-15zM156,49h16v1h-16zM23,50h15v1h-15zM157,50h15v1h-15zM23,51h17v1h-17zM157,51h16v1h-16zM22,52h18v1h-18zM158,52h15v1h-15zM22,53h19v1h-19zM158,53h16v1h-16zM21,54h20v1h-20zM83,54h17v1h-17zM159,54h15v1h-15zM21,55h22v1h-22zM78,55h26v1h-26zM160,55h14v1h-14zM20,56h23v1h-23zM74,56h34v1h-34zM160,56h15v1h-15zM20,57h24v1h-24zM71,57h39v1h-39zM161,57h14v1h-14zM19,58h26v1h-26zM68,58h44v1h-44zM161,58h15v1h-15zM19,59h27v1h-27zM66,59h48v1h-48zM162,59h14v1h-14zM19,60h27v1h-27zM64,60h52v1h-52zM162,60h14v1h-14zM18,61h29v1h-29zM62,61h56v1h-56zM163,61h14v1h-14zM18,62h30v1h-30zM60,62h59v1h-59zM163,62h14v1h-14zM18,63h31v1h-31zM59,63h61v1h-61zM163,63h14v1h-14zM17,64h32v1h-32zM58,64h64v1h-64zM164,64h14v1h-14zM17,65h34v1h-34zM56,65h28v1h-28zM95,65h28v1h-28zM164,65h14v1h-14zM17,66h34v1h-34zM55,66h24v1h-24zM99,66h24v1h-24zM164,66h14v1h-14zM17,67h35v1h-35zM54,67h21v1h-21zM101,67h23v1h-23zM165,67h14v1h-14zM16,68h36v1h-36zM53,68h19v1h-19zM103,68h22v1h-22zM165,68h14v1h-14zM16,69h55v1h-55zM105,69h21v1h-21zM165,69h14v1h-14zM16,70h53v1h-53zM106,70h21v1h-21zM166,70h13v1h-13zM16,71h51v1h-51zM107,71h21v1h-21zM166,71h14v1h-14zM15,72h51v1h-51zM108,72h20v1h-20zM166,72h14v1h-14zM15,73h49v1h-49zM109,73h20v1h-20zM166,73h14v1h-14zM15,74h48v1h-48zM110,74h19v1h-19zM167,74h13v1h-13zM15,75h47v1h-47zM110,75h20v1h-20zM167,75h13v1h-13zM15,76h46v1h-46zM111,76h20v1h-20zM167,76h14v1h-14zM15,77h45v1h-45zM112,77h19v1h-19zM167,77h14v1h-14zM14,78h46v1h-46zM112,78h19v1h-19zM167,78h14v1h-14zM14,79h45v1h-45zM112,79h20v1h-20zM167,79h14v1h-14zM14,80h44v1h-44zM113,80h19v1h-19zM168,80h13v1h-13zM14,81h43v1h-43zM113,81h19v1h-19zM168,81h13v1h-13zM14,82h43v1h-43zM88,82h8v1h-8zM113,82h20v1h-20zM168,82h13v1h-13zM14,83h42v1h-42zM87,83h10v1h-10zM114,83h19v1h-19zM168,83h13v1h-13zM14,84h42v1h-42zM85,84h13v1h-13zM114,84h19v1h-19zM168,84h13v1h-13zM14,85h41v1h-41zM84,85h15v1h-15zM114,85h19v1h-19zM168,85h13v1h-13zM14,86h41v1h-41zM83,86h16v1h-16zM114,86h19v1h-19zM168,86h13v1h-13zM14,87h40v1h-40zM82,87h17v1h-17zM114,87h19v1h-19zM168,87h13v1h-13zM14,88h40v1h-40zM82,88h18v1h-18zM114,88h20v1h-20zM168,88h13v1h-13zM14,89h40v1h-40zM81,89h19v1h-19zM114,89h20v1h-20zM168,89h13v1h-13zM14,90h39v1h-39zM81,90h18v1h-18zM114,90h20v1h-20zM168,90h13v1h-13zM14,91h39v1h-39zM80,91h15v1h-15zM114,91h20v1h-20zM168,91h13v1h-13zM14,92h39v1h-39zM80,92h13v1h-13zM114,92h20v1h-20zM168,92h13v1h-13zM14,93h39v1h-39zM79,93h13v1h-13zM113,93h21v1h-21zM168,93h13v1h-13zM14,94h38v1h-38zM79,94h12v1h-12zM113,94h21v1h-21zM168,94h13v1h-13zM14,95h38v1h-38zM79,95h12v1h-12zM113,95h20v1h-20zM168,95h13v1h-13zM14,96h38v1h-38zM79,96h12v1h-12zM112,96h21v1h-21zM168,96h13v1h-13zM14,97h38v1h-38zM78,97h12v1h-12zM112,97h21v1h-21zM167,97h14v1h-14zM14,98h38v1h-38zM78,98h12v1h-12zM112,98h21v1h-21zM167,98h14v1h-14zM14,99h38v1h-38zM78,99h13v1h-13zM111,99h22v1h-22zM167,99h14v1h-14zM15,100h36v1h-36zM78,100h13v1h-13zM110,100h22v1h-22zM167,100h14v1h-14zM15,101h36v1h-36zM78,101h13v1h-13zM109,101h23v1h-23zM167,101h14v1h-14zM15,102h36v1h-36zM79,102h13v1h-13zM108,102h24v1h-24zM167,102h13v1h-13zM15,103h36v1h-36zM79,103h13v1h-13zM107,103h24v1h-24zM166,103h14v1h-14zM15,104h36v1h-36zM79,104h14v1h-14zM105,104h26v1h-26zM166,104h14v1h-14zM15,105h36v1h-36zM79,105h16v1h-16zM102,105h28v1h-28zM166,105h14v1h-14zM16,106h35v1h-35zM79,106h51v1h-51zM166,106h14v1h-14zM16,107h35v1h-35zM80,107h49v1h-49zM166,107h13v1h-13zM16,108h35v1h-35zM80,108h49v1h-49zM165,108h14v1h-14zM16,109h35v1h-35zM81,109h47v1h-47zM165,109h14v1h-14zM17,110h35v1h-35zM81,110h46v1h-46zM165,110h14v1h-14zM17,111h35v1h-35zM82,111h44v1h-44zM164,111h14v1h-14zM17,112h35v1h-35zM82,112h43v1h-43zM164,112h14v1h-14zM17,113h35v1h-35zM83,113h41v1h-41zM164,113h14v1h-14zM18,114h34v1h-34zM84,114h39v1h-39zM163,114h14v1h-14zM18,115h34v1h-34zM85,115h37v1h-37zM163,115h14v1h-14zM18,116h35v1h-35zM86,116h34v1h-34zM162,116h15v1h-15zM19,117h34v1h-34zM88,117h30v1h-30zM162,117h14v1h-14zM19,118h34v1h-34zM89,118h27v1h-27zM162,118h14v1h-14zM19,119h34v1h-34zM91,119h23v1h-23zM161,119h15v1h-15zM20,120h34v1h-34zM94,120h17v1h-17zM161,120h14v1h-14zM20,121h34v1h-34zM99,121h6v1h-6zM160,121h15v1h-15zM21,122h33v1h-33zM160,122h14v1h-14zM21,123h34v1h-34zM159,123h15v1h-15zM22,124h33v1h-33zM159,124h15v1h-15zM22,125h34v1h-34zM158,125h15v1h-15zM23,126h33v1h-33zM157,126h16v1h-16zM23,127h34v1h-34zM157,127h15v1h-15zM24,128h33v1h-33zM156,128h16v1h-16zM24,129h34v1h-34zM155,129h16v1h-16zM25,130h33v1h-33zM155,130h15v1h-15zM25,131h34v1h-34zM154,131h16v1h-16zM26,132h33v1h-33zM153,132h16v1h-16zM27,133h33v1h-33zM152,133h17v1h-17zM27,134h34v1h-34zM152,134h16v1h-16zM28,135h33v1h-33zM151,135h16v1h-16zM29,136h33v1h-33zM150,136h17v1h-17zM29,137h34v1h-34zM149,137h17v1h-17zM30,138h34v1h-34zM148,138h17v1h-17zM31,139h34v1h-34zM147,139h18v1h-18zM31,140h35v1h-35zM146,140h18v1h-18zM32,141h35v1h-35zM145,141h18v1h-18zM33,142h35v1h-35zM143,142h19v1h-19zM34,143h35v1h-35zM142,143h19v1h-19zM35,144h35v1h-35zM141,144h19v1h-19zM36,145h35v1h-35zM140,145h19v1h-19zM37,146h36v1h-36zM138,146h21v1h-21zM38,147h36v1h-36zM137,147h21v1h-21zM39,148h37v1h-37zM135,148h22v1h-22zM40,149h38v1h-38zM133,149h23v1h-23zM41,150h39v1h-39zM131,150h24v1h-24zM42,151h40v1h-40zM129,151h24v1h-24zM43,152h41v1h-41zM126,152h26v1h-26zM44,153h43v1h-43zM123,153h28v1h-28zM45,154h46v1h-46zM120,154h30v1h-30zM47,155h49v1h-49zM114,155h35v1h-35zM48,156h99v1h-99zM49,157h97v1h-97zM51,158h94v1h-94zM52,159h91v1h-91zM54,160h87v1h-87zM55,161h85v1h-85zM57,162h81v1h-81zM59,163h77v1h-77zM61,164h73v1h-73zM63,165h69v1h-69zM66,166h64v1h-64zM68,167h59v1h-59zM71,168h53v1h-53zM74,169h47v1h-47zM78,170h39v1h-39zM83,171h30v1h-30zM90,172h15v1h-15z" fill="#000"/>
</svg>